<?xml version="1.0" encoding="UTF-8" standalone="no" ?>
<!DOCTYPE svg PUBLIC "-//W3C//DTD SVG 1.1//EN" "http://www.w3.org/Graphics/SVG/1.1/DTD/svg11.dtd">
<svg xmlns="http://www.w3.org/2000/svg" xmlns:xlink="http://www.w3.org/1999/xlink" version="1.1" width="1080" height="1080" viewBox="0 0 1080 1080" xml:space="preserve">
<title>Rune Fusion Labs</desc>
<desc>Rune Fusion Labs (games)</desc>
<defs>
</defs>
<rect x="0" y="0" width="100%" height="100%" fill="transparent"></rect>
<g transform="matrix(1 0 0 1 540 540)" id="57146717-4731-4f35-abe5-120a7a1f8d58"  >
</g>
<g transform="matrix(1 0 0 1 540 540)" id="6b968969-9828-43d7-b559-4cedfc279ca2"  >
<rect style="stroke: none; stroke-width: 1; stroke-dasharray: none; stroke-linecap: butt; stroke-dashoffset: 0; stroke-linejoin: miter; stroke-miterlimit: 4; fill: rgb(255,255,255); fill-rule: nonzero; opacity: 1; visibility: hidden;" vector-effect="non-scaling-stroke"  x="-540" y="-540" rx="0" ry="0" width="1080" height="1080" />
</g>
<g transform="matrix(9.07 0 0 9.07 539.71 538.15)"  >
<path style="stroke: none; stroke-width: 1; stroke-dasharray: none; stroke-linecap: butt; stroke-dashoffset: 0; stroke-linejoin: miter; stroke-miterlimit: 4; fill: rgb(255,255,255); fill-rule: evenodd; opacity: 1;" vector-effect="non-scaling-stroke"  transform=" translate(-59.5, -59.5)" d="M -0.5 -0.5 C 39.5 -0.5 79.5 -0.5 119.5 -0.5 C 119.5 39.5 119.5 79.5 119.5 119.5 C 79.5 119.5 39.5 119.5 -0.5 119.5 C -0.5 79.5 -0.5 39.5 -0.5 -0.5 Z" stroke-linecap="round" />
</g>
<g transform="matrix(8.42 0 0 8.42 468.42 549.5)"  >
<path style="stroke: none; stroke-width: 1; stroke-dasharray: none; stroke-linecap: butt; stroke-dashoffset: 0; stroke-linejoin: miter; stroke-miterlimit: 4; fill: rgb(9,8,8); fill-rule: evenodd; opacity: 1;" vector-effect="non-scaling-stroke"  transform=" translate(-51, -58)" d="M 75.5 50.5 C 75.1667 50.5 74.8333 50.5 74.5 50.5 C 72.5372 49.0401 70.7038 47.3734 69 45.5 C 68.235 47.0657 68.4017 48.3991 69.5 49.5 C 68.4271 51.6531 68.4271 53.6531 69.5 55.5 C 70.922 56.925 72.5887 57.925 74.5 58.5 C 73.5628 63.81 71.7295 68.81 69 73.5 C 70.4526 68.0578 69.286 63.2244 65.5 59 C 60.8795 57.462 57.7129 58.962 56 63.5 C 54.6708 75.0233 57.1708 85.69 63.5 95.5 C 62.0541 97.6179 61.3874 99.9512 61.5 102.5 C 60.8333 105.833 60.1667 109.167 59.5 112.5 C 53.8557 92.0132 42.8557 75.1799 26.5 62 C 30.0163 60.7441 33.0163 58.7441 35.5 56 C 47.6488 55.6744 52.3154 49.6744 49.5 38 C 52.4603 38.6059 54.627 40.4392 56 43.5 C 56.2107 34.9215 55.3774 26.4215 53.5 18 C 53.6325 12.2364 55.7992 7.40303 60 3.5 C 55.1023 12.8276 55.4356 22.1609 61 31.5 C 65 36.1667 69 40.8333 73 45.5 C 74.0945 47.0779 74.9278 48.7446 75.5 50.5 Z" stroke-linecap="round" />
</g>
<g transform="matrix(8.42 0 0 8.42 641.39 477.95)"  >
<path style="stroke: none; stroke-width: 1; stroke-dasharray: none; stroke-linecap: butt; stroke-dashoffset: 0; stroke-linejoin: miter; stroke-miterlimit: 4; fill: rgb(219,0,1); fill-rule: evenodd; opacity: 1;" vector-effect="non-scaling-stroke"  transform=" translate(-71.54, -49.5)" d="M 74.5 50.5 C 74.6495 51.552 74.4828 52.552 74 53.5 C 72.6288 51.9586 71.1288 50.6253 69.5 49.5 C 68.4017 48.3991 68.235 47.0657 69 45.5 C 70.7038 47.3734 72.5372 49.0401 74.5 50.5 Z" stroke-linecap="round" />
</g>
<g transform="matrix(8.42 0 0 8.42 646.54 515.84)"  >
<path style="stroke: rgb(0,0,0); stroke-width: 1; stroke-dasharray: none; stroke-linecap: butt; stroke-dashoffset: 0; stroke-linejoin: miter; stroke-miterlimit: 4; fill: rgb(0,0,0); fill-rule: evenodd; opacity: 1;" vector-effect="non-scaling-stroke"  transform=" translate(-72.15, -54)" d="M 69.5 49.5 C 71.1288 50.6253 72.6288 51.9586 74 53.5 C 74.4828 52.552 74.6495 51.552 74.5 50.5 C 74.8333 50.5 75.1667 50.5 75.5 50.5 C 75.8064 53.3854 75.4731 56.0521 74.5 58.5 C 74.6495 57.448 74.4828 56.448 74 55.5 C 72.4878 54.7433 71.1545 53.7433 70 52.5 C 69.5172 53.448 69.3505 54.448 69.5 55.5 C 68.4271 53.6531 68.4271 51.6531 69.5 49.5 Z" stroke-linecap="round" />
</g>
<g transform="matrix(8.42 0 0 8.42 645.26 528.47)"  >
<path style="stroke: none; stroke-width: 1; stroke-dasharray: none; stroke-linecap: butt; stroke-dashoffset: 0; stroke-linejoin: miter; stroke-miterlimit: 4; fill: rgb(217,0,1); fill-rule: evenodd; opacity: 1;" vector-effect="non-scaling-stroke"  transform=" translate(-72, -55.5)" d="M 74.5 58.5 C 72.5887 57.925 70.922 56.925 69.5 55.5 C 69.3505 54.448 69.5172 53.448 70 52.5 C 71.1545 53.7433 72.4878 54.7433 74 55.5 C 74.4828 56.448 74.6495 57.448 74.5 58.5 Z" stroke-linecap="round" />
</g>
<g transform="matrix(NaN NaN NaN NaN 0 0)"  >
<g style=""   >
</g>
</g>
<g transform="matrix(NaN NaN NaN NaN 0 0)"  >
<g style=""   >
</g>
</g>
<g transform="matrix(NaN NaN NaN NaN 0 0)"  >
<g style=""   >
</g>
</g>
</svg>